<svg width="19" height="22" viewBox="0 0 19 22" fill="none" xmlns="http://www.w3.org/2000/svg">
<path d="M9.10742 0L9.10742 18.3333" stroke="black" stroke-width="3"/>
<mask id="path-2-inside-1_279_38" fill="white">
<path d="M2.13375 13.3334L9.08004 18.4841L16.0263 13.3334L18.1602 14.9191L9.08004 21.6667L-7.58864e-05 14.9191L2.13375 13.3334Z"/>
</mask>
<path d="M2.13375 13.3334L9.08004 18.4841L16.0263 13.3334L18.1602 14.9191L9.08004 21.6667L-7.58864e-05 14.9191L2.13375 13.3334Z" fill="black"/>
<path d="M2.13375 13.3334L3.92062 10.9236L2.1318 9.59717L0.344367 10.9254L2.13375 13.3334ZM9.08004 18.4841L7.29317 20.8939L9.08004 22.2188L10.8669 20.8939L9.08004 18.4841ZM16.0263 13.3334L17.8157 10.9254L16.0283 9.59717L14.2395 10.9236L16.0263 13.3334ZM18.1602 14.9191L19.9495 17.327L23.1898 14.9191L19.9495 12.5111L18.1602 14.9191ZM9.08004 21.6667L7.29066 24.0746L9.08004 25.4044L10.8694 24.0746L9.08004 21.6667ZM-7.58864e-05 14.9191L-1.78946 12.5111L-5.02974 14.9191L-1.78946 17.327L-7.58864e-05 14.9191ZM0.346882 15.7432L7.29317 20.8939L10.8669 16.0743L3.92062 10.9236L0.346882 15.7432ZM10.8669 20.8939L17.8132 15.7432L14.2395 10.9236L7.29317 16.0743L10.8669 20.8939ZM14.2369 15.7413L16.3708 17.327L19.9495 12.5111L17.8157 10.9254L14.2369 15.7413ZM16.3708 12.5111L7.29066 19.2588L10.8694 24.0746L19.9495 17.327L16.3708 12.5111ZM10.8694 19.2588L1.78931 12.5111L-1.78946 17.327L7.29066 24.0746L10.8694 19.2588ZM1.78931 17.327L3.92313 15.7413L0.344367 10.9254L-1.78946 12.5111L1.78931 17.327Z" fill="black" mask="url(#path-2-inside-1_279_38)"/>
</svg>
