<svg width="19" height="22" viewBox="0 0 19 22" fill="none" xmlns="http://www.w3.org/2000/svg">
<g id="Group 46">
<path id="Vector 11" d="M9.05273 21.6667L9.05273 3.33341" stroke="black" stroke-width="3"/>
<g id="Vector">
<mask id="path-2-inside-1_279_33" fill="white">
<path d="M16.0264 8.33337L9.08012 3.18268L2.13383 8.33337L1.89092e-08 6.74768L9.08012 4.06943e-05L18.1602 6.74768L16.0264 8.33337Z"/>
</mask>
<path d="M16.0264 8.33337L9.08012 3.18268L2.13383 8.33337L1.89092e-08 6.74768L9.08012 4.06943e-05L18.1602 6.74768L16.0264 8.33337Z" fill="black"/>
<path d="M16.0264 8.33337L14.2395 10.7432L16.0284 12.0696L17.8158 10.7413L16.0264 8.33337ZM9.08012 3.18268L10.867 0.772884L9.08012 -0.552085L7.29325 0.772884L9.08012 3.18268ZM2.13383 8.33337L0.344443 10.7413L2.13188 12.0696L3.9207 10.7432L2.13383 8.33337ZM1.89092e-08 6.74768L-1.78938 4.33975L-5.02966 6.74768L-1.78938 9.1556L1.89092e-08 6.74768ZM9.08012 4.06943e-05L10.8695 -2.40788L9.08012 -3.73762L7.29073 -2.40788L9.08012 4.06943e-05ZM18.1602 6.74768L19.9496 9.1556L23.1899 6.74768L19.9496 4.33975L18.1602 6.74768ZM17.8133 5.92358L10.867 0.772884L7.29325 5.59247L14.2395 10.7432L17.8133 5.92358ZM7.29325 0.772884L0.346958 5.92358L3.9207 10.7432L10.867 5.59247L7.29325 0.772884ZM3.92321 5.92545L1.78938 4.33975L-1.78938 9.1556L0.344443 10.7413L3.92321 5.92545ZM1.78938 9.1556L10.8695 2.40797L7.29073 -2.40788L-1.78938 4.33975L1.78938 9.1556ZM7.29073 2.40797L16.3708 9.1556L19.9496 4.33975L10.8695 -2.40788L7.29073 2.40797ZM16.3708 4.33975L14.237 5.92545L17.8158 10.7413L19.9496 9.1556L16.3708 4.33975Z" fill="black" mask="url(#path-2-inside-1_279_33)"/>
</g>
</g>
</svg>
